# xmcd
#
# Track frame offsets:
# 150
# 13970
# 28620
# 45330
# 59612
# 78472
# 92455
# 103602
# 117492
# 129360
# 143110
# 157027
# 170812
# 183600
# 193942
# 209237
# 221892
# 236630
# 249537
# 267412
#
# Disc length: 3757 seconds
#
# Revision: 0
# Processed by: cddbd v1.4PL0 Copyright (c) Steve Scherf et al.
# Submitted via: MacMP3 Pro 5.0 (http://mp3.act2.co.jp/)
#
DISCID=360eab14
DTITLE=PERCY FAITH AND HIS ORCHESTRA/etc - FANTASTIC JOURNEY
DYEAR=1900
DGENRE=
TTITLE0=AROUND THE WORLD
TTITLE1=TARA'S THEME
TTITLE2=AUTUMN IN NEW YORK
TTITLE3=EL CONDOR PASA
TTITLE4=SWEET LEILANI
TTITLE5=THE MOON OF MANAKOORA
TTITLE6=THE MARCH OF SHIAMESE CHILDREN
TTITLE7=SHANGRI-LA
TTITLE8=CIAO,CIAO, BAMBINA
TTITLE9=ARRIVEDERCI, ROMA
TTITLE10=UNDER  PARIS
TTITLE11=LA VIE ROSE
TTITLE12=13 JOURS EN FRANCE
TTITLE13=A MAN AND A WOMAN
TTITLE14=GRANADA
TTITLE15=JEUX INTERDITS
TTITLE16=MELODY FAIR
TTITLE17=BLAUER HIMMEL
TTITLE18=FROM RUSSIA WITH LOVE
TTITLE19=SOMEWHERE, MY LOVE
EXTD=
EXTT0=
EXTT1=
EXTT2=
EXTT3=
EXTT4=
EXTT5=
EXTT6=
EXTT7=
EXTT8=
EXTT9=
EXTT10=
EXTT11=
EXTT12=
EXTT13=
EXTT14=
EXTT15=
EXTT16=
EXTT17=
EXTT18=
EXTT19=
PLAYORDER=
